<svg xmlns="http://www.w3.org/2000/svg" xmlns:xlink="http://www.w3.org/1999/xlink" width="1348" zoomAndPan="magnify" viewBox="0 0 1011 809.999993" height="1080" preserveAspectRatio="xMidYMid meet" version="1.0"><defs><clipPath id="b096ef7013"><path d="M 1.339844 324 L 1009.703125 324 L 1009.703125 487 L 1.339844 487 Z M 1.339844 324 " clip-rule="nonzero"/></clipPath><clipPath id="c87d0d86e0"><path d="M 1.339844 648 L 628 648 L 628 810 L 1.339844 810 Z M 1.339844 648 " clip-rule="nonzero"/></clipPath></defs><path fill="#1e1e1e" d="M 717.140625 162.03125 L 82.363281 162.03125 C 37.609375 162.03125 1.339844 125.765625 1.339844 81.015625 C 1.339844 36.28125 37.609375 0.015625 82.363281 0.015625 L 717.140625 0.015625 C 761.894531 0.015625 798.164062 36.28125 798.164062 81.015625 C 798.164062 125.765625 761.894531 162.03125 717.140625 162.03125 " fill-opacity="1" fill-rule="nonzero"/><g clip-path="url(#b096ef7013)"><path fill="#1e1e1e" d="M 928.667969 486.09375 L 82.363281 486.09375 C 37.609375 486.09375 1.339844 449.824219 1.339844 405.078125 C 1.339844 360.328125 37.609375 324.0625 82.363281 324.0625 L 928.667969 324.0625 C 973.417969 324.0625 1009.6875 360.328125 1009.6875 405.078125 C 1009.6875 449.824219 973.417969 486.09375 928.667969 486.09375 " fill-opacity="1" fill-rule="nonzero"/></g><g clip-path="url(#c87d0d86e0)"><path fill="#1e1e1e" d="M 546.304688 810.152344 L 82.363281 810.152344 C 37.609375 810.152344 1.339844 773.886719 1.339844 729.136719 C 1.339844 684.390625 37.609375 648.121094 82.363281 648.121094 L 546.304688 648.121094 C 591.058594 648.121094 627.328125 684.390625 627.328125 729.136719 C 627.328125 773.886719 591.058594 810.152344 546.304688 810.152344 " fill-opacity="1" fill-rule="nonzero"/></g></svg>